<?xml version="1.0" encoding="utf-8"?>
<!-- Generator: Adobe Illustrator 24.0.0, SVG Export Plug-In . SVG Version: 6.00 Build 0)  -->
<svg version="1.1" id="Calque_1" xmlns="http://www.w3.org/2000/svg" xmlns:xlink="http://www.w3.org/1999/xlink" x="0px" y="0px"
	 viewBox="0 0 100 88.4" style="enable-background:new 0 0 100 88.4;" xml:space="preserve">
<style type="text/css">
	.st0{fill:#FFFFFF;}
</style>
<path class="st0" d="M100,44.2c0-6.8-10.6-11.8-24.8-14.5c1.2-3.3,2.1-6.5,2.8-9.5c2.2-10,1.1-16.9-3-19.2C74,0.3,72.8,0,71.5,0
	C65.9,0,58,5.7,50,15C42,5.7,34.1,0,28.5,0C27.2,0,26,0.3,25,0.9c-5.9,3.4-4.9,15.1-0.2,28.8C10.7,32.4,0,37.4,0,44.2
	C0,51,10.6,56,24.8,58.7c-1.2,3.3-2.1,6.5-2.8,9.5c-2.2,10-1.1,16.9,3,19.2c1,0.6,2.2,0.9,3.5,0.9c5.6,0,13.5-5.7,21.5-15
	c8,9.3,15.9,15,21.5,15c1.3,0,2.5-0.3,3.5-0.9c4.1-2.4,5.2-9.2,3-19.2c-0.7-3-1.6-6.2-2.8-9.5C89.4,56,100,51,100,44.2z M71.5,2.6
	c0.8,0,1.6,0.2,2.2,0.5c3,1.7,3.7,7.7,1.7,16.4c-0.7,3-1.6,6.3-2.8,9.6c-4.2-0.7-8.6-1.2-13.1-1.5c-2.6-3.9-5.2-7.5-7.8-10.7
	C59.3,8.2,66.6,2.6,71.5,2.6z M62.3,51.3c-1.4,2.4-2.8,4.7-4.2,6.9c-2.6,0.1-5.3,0.2-8.1,0.2s-5.5-0.1-8.1-0.2
	c-1.5-2.2-2.9-4.5-4.2-6.9c-1.4-2.4-2.7-4.8-3.8-7.1c1.2-2.4,2.5-4.8,3.9-7.1c1.4-2.4,2.8-4.7,4.2-6.9c2.6-0.1,5.3-0.2,8.1-0.2
	s5.5,0.1,8.1,0.2c1.4,2.2,2.9,4.5,4.2,6.9c1.4,2.4,2.6,4.7,3.8,7.1C64.9,46.6,63.7,48.9,62.3,51.3z M67.6,47.1
	c1.6,3.3,3,6.6,4.2,9.7c-3.2,0.5-6.8,0.9-10.5,1.2c1.1-1.8,2.2-3.6,3.3-5.4C65.6,50.8,66.6,48.9,67.6,47.1z M56.3,60.8
	c-2.1,3-4.2,5.9-6.3,8.4c-2.1-2.6-4.2-5.4-6.3-8.4c2.1,0.1,4.2,0.1,6.3,0.1C52.1,61,54.2,60.9,56.3,60.8z M38.7,58
	c-3.7-0.3-7.2-0.7-10.5-1.2c1.2-3.2,2.6-6.4,4.2-9.7c1,1.9,2,3.7,3,5.5C36.5,54.4,37.6,56.2,38.7,58z M32.4,41.3
	c-1.6-3.4-3-6.7-4.2-9.7c3.3-0.5,6.8-0.9,10.5-1.2c-1.1,1.8-2.2,3.6-3.3,5.4C34.4,37.6,33.4,39.5,32.4,41.3z M43.7,27.5
	c2.1-3,4.2-5.9,6.3-8.4c2.1,2.6,4.2,5.4,6.3,8.4c-2.1-0.1-4.2-0.1-6.3-0.1C47.9,27.4,45.8,27.4,43.7,27.5z M64.5,35.8
	c-1.1-1.9-2.2-3.7-3.3-5.4c3.7,0.3,7.2,0.7,10.5,1.2c-1.2,3.2-2.6,6.4-4.2,9.7C66.6,39.5,65.6,37.6,64.5,35.8z M26.3,3.1
	c0.6-0.4,1.4-0.5,2.2-0.5c4.9,0,12.2,5.6,19.8,14.5c-2.6,3.2-5.3,6.8-7.8,10.7c-4.5,0.3-9,0.8-13.1,1.5C22.4,15.4,22.3,5.4,26.3,3.1
	z M2.6,44.2c0-4.6,8.7-9.5,23.1-12.2c1.5,4,3.3,8.1,5.3,12.1c-2.1,4.1-3.8,8.2-5.3,12.2C11.3,53.7,2.6,48.8,2.6,44.2z M28.5,85.8
	c-0.8,0-1.6-0.2-2.2-0.5c-3-1.7-3.7-7.7-1.7-16.4c0.7-3,1.6-6.3,2.8-9.6c4.2,0.7,8.6,1.2,13.1,1.5c2.6,3.9,5.2,7.5,7.8,10.7
	C40.7,80.2,33.4,85.8,28.5,85.8z M75.5,68.8c1.9,8.7,1.3,14.7-1.7,16.4c-0.6,0.4-1.4,0.5-2.2,0.5c-4.9,0-12.2-5.6-19.8-14.5
	c2.6-3.2,5.3-6.8,7.8-10.7c4.5-0.3,8.9-0.8,13.1-1.5C73.8,62.5,74.8,65.8,75.5,68.8z M74.4,56.3c-1.5-3.9-3.3-8-5.3-12.1
	c2.1-4.1,3.8-8.2,5.3-12.1c14.4,2.7,23,7.5,23,12.1C97.4,48.8,88.7,53.7,74.4,56.3z"/>
<circle class="st0" cx="50" cy="44.2" r="5.5"/>
</svg>
